<svg xmlns="http://www.w3.org/2000/svg" xmlns:xlink="http://www.w3.org/1999/xlink" version="1.1" x="0px" y="0px" viewBox="0 0 160 200" style="enable-background:new 0 0 160 160;" xml:space="preserve" fill="#fff">
<path fill="#fff" d="M52.457,111.428c4.428,0,8.031-3.603,8.031-8.03v-2.545h2.544c4.428,0,8.031-3.603,8.031-8.03s-3.603-8.03-8.031-8.03  h-2.544v-2.545c0-4.428-3.603-8.03-8.031-8.03s-8.031,3.603-8.031,8.03v2.545h-2.544c-4.428,0-8.031,3.603-8.031,8.03  s3.603,8.03,8.031,8.03h2.544v2.545C44.426,107.826,48.029,111.428,52.457,111.428z M41.882,95.853c-1.671,0-3.031-1.359-3.031-3.03  s1.359-3.03,3.031-3.03h5.044c1.381,0,2.5-1.119,2.5-2.5v-5.045c0-1.671,1.359-3.03,3.031-3.03s3.031,1.359,3.031,3.03v5.045  c0,1.381,1.119,2.5,2.5,2.5h5.044c1.671,0,3.031,1.359,3.031,3.03s-1.359,3.03-3.031,3.03h-5.044c-1.381,0-2.5,1.119-2.5,2.5v5.045  c0,1.671-1.359,3.03-3.031,3.03s-3.031-1.359-3.031-3.03v-5.045c0-1.381-1.119-2.5-2.5-2.5H41.882z"/>
<path fill="#fff" d="M97.195,85.737c-3.908,0-7.087,3.179-7.087,7.086s3.179,7.086,7.087,7.086c3.907,0,7.086-3.179,7.086-7.086  S101.102,85.737,97.195,85.737z M97.195,94.909c-1.15,0-2.087-0.936-2.087-2.086s0.937-2.086,2.087-2.086s2.086,0.936,2.086,2.086  S98.346,94.909,97.195,94.909z"/>
<path fill="#fff" d="M146.093,117.669c-0.008-0.051-0.016-0.102-0.025-0.151l-4.588-24.14c-2.253-11.855-9.574-21.808-19.453-27.738  c-2.253,2.086-5.21,3.409-8.474,3.575c10.635,4.276,18.823,13.754,21.05,25.47l4.573,24.064c2.678,18.497,2.208,25.671-5.748,28.678  c-6.693,1.59-18.858-8.082-29.319-29.762c-0.584-1.21-1.809-1.979-3.152-1.979H59.044c-1.343,0-2.568,0.769-3.152,1.979  c-10.46,21.678-22.614,31.356-29.32,29.762c-7.956-3.007-8.425-10.181-5.748-28.678l4.574-24.064  C28.474,78.5,42.665,66.752,59.141,66.752h6.606c-2.39-1.697-4.213-4.142-5.105-7h-1.502c-19.833,0-36.917,14.143-40.62,33.627  l-4.588,24.14c-0.009,0.05-0.018,0.101-0.025,0.151c-2.205,15.208-4.484,30.935,10.421,36.392c0.102,0.038,0.206,0.07,0.311,0.098  c1.106,0.292,2.241,0.436,3.399,0.436c10.589,0,23.141-11.964,33.182-31.907h37.559c11.14,22.124,25.366,34.436,36.581,31.472  c0.105-0.027,0.209-0.06,0.311-0.098C150.577,148.603,148.298,132.877,146.093,117.669z"/>
<path fill="#fff" d="M82.487,44.366c0.467,0.388,1.033,0.577,1.597,0.577c0.717,0,1.43-0.307,1.924-0.902c0.883-1.062,0.736-2.638-0.325-3.521  l-5.483-4.556l5.483-4.556c1.062-0.882,1.208-2.458,0.325-3.521c-0.884-1.064-2.46-1.208-3.521-0.325l-7.798,6.479  c-0.571,0.475-0.902,1.18-0.902,1.923s0.331,1.448,0.902,1.923L82.487,44.366z"/>
<path fill="#fff" d="M100.403,44.041c0.494,0.595,1.207,0.902,1.924,0.902c0.563,0,1.13-0.189,1.597-0.577l7.798-6.479  c0.571-0.475,0.902-1.18,0.902-1.923s-0.331-1.448-0.902-1.923l-7.798-6.479c-1.06-0.881-2.638-0.738-3.521,0.325  c-0.883,1.062-0.736,2.638,0.325,3.521l5.483,4.556l-5.483,4.556C99.667,41.403,99.52,42.979,100.403,44.041z"/>
<path fill="#fff" d="M89.208,46.798c0.263,0.088,0.53,0.13,0.793,0.13c1.046,0,2.021-0.661,2.371-1.707l5.663-16.925  c0.438-1.31-0.269-2.726-1.578-3.164c-1.307-0.439-2.725,0.269-3.164,1.577L87.63,43.634C87.192,44.943,87.898,46.36,89.208,46.798z  "/>
<path fill="#fff" d="M73.548,66.75h8.101v13.74c0,1.428,0.867,2.713,2.191,3.246c0.425,0.171,0.868,0.254,1.308,0.254  c0.934,0,1.85-0.374,2.522-1.073l15.559-16.167h9.635c6.073,0,11.015-4.941,11.015-11.015V16.419  c0-6.074-4.941-11.015-11.015-11.015H73.548c-6.074,0-11.015,4.941-11.015,11.015v39.315C62.533,61.809,67.474,66.75,73.548,66.75z   M69.533,16.419c0-2.214,1.801-4.015,4.015-4.015h39.315c2.214,0,4.015,1.801,4.015,4.015v39.315c0,2.214-1.801,4.015-4.015,4.015  h-11.124c-0.951,0-1.862,0.387-2.521,1.073L88.648,71.805V63.25c0-1.933-1.567-3.5-3.5-3.5H73.548c-2.214,0-4.015-1.801-4.015-4.015  V16.419z"/>
<path fill="#fff" d="M125.496,92.823c0-3.907-3.179-7.086-7.086-7.086s-7.086,3.179-7.086,7.086s3.179,7.086,7.086,7.086  S125.496,96.73,125.496,92.823z M116.324,92.823c0-1.15,0.936-2.086,2.086-2.086s2.086,0.936,2.086,2.086s-0.936,2.086-2.086,2.086  S116.324,93.973,116.324,92.823z"/>
<path fill="#fff" d="M107.835,110.516c3.907,0,7.086-3.179,7.086-7.086s-3.179-7.086-7.086-7.086s-7.086,3.179-7.086,7.086  S103.928,110.516,107.835,110.516z M107.835,101.344c1.15,0,2.086,0.936,2.086,2.086s-0.936,2.086-2.086,2.086  s-2.086-0.936-2.086-2.086S106.684,101.344,107.835,101.344z"/>
<path fill="#fff" d="M107.835,75.129c-3.907,0-7.086,3.179-7.086,7.086s3.179,7.086,7.086,7.086s7.086-3.179,7.086-7.086  S111.742,75.129,107.835,75.129z M107.835,84.301c-1.15,0-2.086-0.936-2.086-2.086s0.936-2.086,2.086-2.086s2.086,0.936,2.086,2.086  S108.985,84.301,107.835,84.301z"/><text x="0" y="175" fill="#000000" font-size="5px" font-weight="bold" font-family="'Helvetica Neue', Helvetica, Arial-Unicode, Arial, Sans-serif">Created by Symbolon</text><text x="0" y="180" fill="#000000" font-size="5px" font-weight="bold" font-family="'Helvetica Neue', Helvetica, Arial-Unicode, Arial, Sans-serif">from the Noun Project</text></svg>