<?xml version="1.0" standalone="no"?>
<!DOCTYPE svg PUBLIC "-//W3C//DTD SVG 20010904//EN"
 "http://www.w3.org/TR/2001/REC-SVG-20010904/DTD/svg10.dtd">
<svg version="1.0" xmlns="http://www.w3.org/2000/svg"
 width="750.000000pt" height="750.000000pt" viewBox="0 0 750.000000 750.000000"
 preserveAspectRatio="xMidYMid meet">
<metadata>
Created by potrace 1.14, written by Peter Selinger 2001-2017
</metadata>
<g transform="translate(0.000000,750.000000) scale(0.100000,-0.100000)"
fill="#000000" stroke="none">
<path d="M930 4340 l0 -2500 1310 0 c1245 0 1310 1 1301 18 -5 9 -116 172
-245 362 -235 344 -236 345 -214 361 12 9 33 24 47 32 l26 15 251 -392 251
-391 1306 -3 1307 -2 0 24 c0 13 3 36 6 52 5 26 -46 103 -446 674 -381 543
-455 645 -473 642 -12 -1 -50 -16 -83 -32 -254 -122 -635 -143 -963 -54 -266
72 -466 187 -651 373 -251 253 -343 558 -273 901 8 41 18 80 22 86 4 7 20 7
49 1 41 -8 43 -10 37 -35 -88 -338 -8 -635 235 -883 379 -385 1055 -508 1530
-278 349 169 628 436 794 759 116 227 178 418 212 650 24 167 15 451 -20 611
-103 480 -378 887 -781 1154 -203 134 -429 234 -660 291 -271 67 -183 64
-2121 64 l-1754 0 0 -2500z m1028 2003 l-3 -328 -28 -57 c-34 -70 -110 -140
-174 -162 -137 -47 -290 5 -360 124 -28 45 -33 64 -33 115 0 119 70 207 166
209 24 1 44 5 44 10 0 5 -24 6 -54 4 -72 -6 -120 -42 -153 -115 -21 -46 -24
-65 -20 -116 3 -34 8 -71 12 -82 5 -17 -10 -32 -99 -93 -57 -39 -109 -72 -115
-72 -8 0 -11 70 -11 218 l0 218 65 39 c59 37 78 55 57 55 -5 0 -34 -18 -65
-40 l-57 -39 0 219 0 220 416 0 415 0 -3 -327z m-407 -738 c216 -74 394 -135
396 -135 2 0 2 -129 1 -286 l-3 -287 -393 -133 c-217 -74 -400 -134 -408 -134
-12 0 -14 40 -14 238 l0 237 235 78 c129 43 235 83 235 88 0 13 5 14 -137 -36
l-127 -45 -103 36 -103 37 0 238 c0 199 2 239 14 239 8 0 191 -61 407 -135z
m399 -1253 l0 -237 -112 -39 c-220 -76 -279 -98 -275 -103 3 -2 45 8 94 23
l89 26 102 -31 102 -32 0 -177 0 -177 -225 -79 c-124 -43 -224 -81 -221 -83 2
-2 58 13 125 33 l122 38 99 -33 100 -32 0 -245 c0 -172 -3 -244 -11 -244 -6 0
-191 61 -410 136 l-399 137 0 546 0 546 378 131 c207 73 392 132 410 133 l32
1 0 -238z m8 -1749 l-3 -328 -28 -57 c-30 -62 -83 -115 -149 -150 -61 -32
-193 -32 -258 0 -103 50 -160 134 -160 233 0 119 68 204 162 204 26 0 48 3 48
8 0 13 -90 7 -119 -8 -71 -36 -117 -131 -108 -222 3 -32 8 -67 11 -78 5 -17
-12 -32 -96 -90 -57 -38 -108 -71 -115 -73 -10 -3 -13 44 -13 216 l0 220 68
42 c37 24 62 45 55 47 -6 2 -34 -12 -61 -31 -27 -20 -52 -36 -56 -36 -3 0 -6
97 -6 215 l0 215 416 0 415 0 -3 -327z"/>
<path d="M927 1583 c-4 -3 -7 -233 -7 -510 l0 -503 344 0 c388 0 419 4 522 76
83 56 144 167 144 260 0 55 -38 158 -73 199 l-33 38 -43 -40 c-23 -23 -63 -48
-88 -57 -49 -17 -133 -22 -133 -8 0 4 24 8 53 8 141 2 257 148 229 288 -15 75
-27 101 -68 146 -49 54 -117 88 -201 100 -76 11 -636 14 -646 3z"/>
<path d="M3047 1583 c-4 -3 -7 -231 -7 -505 l0 -498 265 0 c146 0 265 3 265 6
0 3 -20 35 -45 71 -48 68 -50 73 -36 73 5 0 30 -34 56 -75 l46 -75 265 0 c225
0 264 2 264 15 0 10 -143 225 -175 263 -1 1 -30 -5 -65 -14 -126 -32 -274 28
-321 130 -19 42 -26 121 -11 130 5 3 8 -16 8 -42 1 -95 62 -166 173 -198 137
-41 282 29 351 169 76 154 51 316 -65 433 -113 114 -162 124 -611 124 -193 0
-354 -3 -357 -7z"/>
<path d="M4180 1085 l0 -505 265 0 266 0 -51 75 c-28 41 -46 75 -40 75 6 0 32
-34 58 -74 l47 -75 268 0 c186 -1 267 2 267 10 0 6 -41 69 -91 141 -79 112
-94 129 -113 123 -99 -30 -156 -29 -236 6 -99 43 -164 145 -144 225 9 34 21
30 16 -6 -9 -59 7 -100 58 -151 57 -57 132 -84 215 -77 149 12 281 161 293
330 13 191 -125 360 -328 398 -29 6 -210 10 -401 10 l-349 0 0 -505z"/>
<path d="M1997 1573 c-4 -3 -7 -228 -7 -500 l0 -493 495 0 495 0 0 155 0 155
-140 0 c-87 0 -140 4 -140 10 0 6 53 10 140 10 l140 0 -2 168 -3 167 -140 5
-140 6 143 2 143 2 -3 158 -3 157 -486 3 c-267 1 -489 -1 -492 -5z"/>
<path d="M5310 1559 c0 -12 70 -149 155 -305 l155 -284 0 -195 0 -195 300 0
300 0 0 196 0 196 160 286 c89 157 159 292 158 301 -3 14 -38 16 -300 19
l-296 2 -58 -105 c-31 -58 -61 -105 -66 -105 -10 0 -5 10 58 122 24 43 44 80
44 83 0 3 -137 5 -305 5 -303 0 -305 0 -305 -21z"/>
</g>
</svg>
